<svg xmlns="http://www.w3.org/2000/svg" viewBox="0 0 40 40"><defs/><defs><filter id="a"><feColorMatrix in="SourceGraphic" values="0 0 0 0 1.000000 0 0 0 0 1.000000 0 0 0 0 1.000000 0 0 0 1.000000 0"/></filter></defs><g fill="none"><path fill="transparent" d="M0 0h40v40H0z"/><g filter="url(#a)"><g fill="#000"><path d="M23.501 19.518c0 .201-.013.403-.04.605.013-.091.023-.178.037-.27-.054.407-.161.8-.316 1.18l.1-.242a4.819 4.819 0 01-.544.961c-.09.128.142-.171.064-.08l-.07.084a4.536 4.536 0 01-.622.621c-.023.02-.047.037-.067.057-.138.115.212-.154.064-.05l-.162.114c-.252.168-.52.313-.8.43l.243-.1c-.38.154-.773.262-1.18.315.091-.013.178-.023.27-.037-.404.05-.81.05-1.214 0 .091.014.178.024.269.037a4.782 4.782 0 01-1.18-.316l.243.101a4.819 4.819 0 01-.961-.544c-.128-.09.171.141.08.064-.027-.024-.057-.047-.084-.07a4.536 4.536 0 01-.621-.622l-.054-.068c-.114-.137.155.212.05.064-.037-.053-.077-.107-.114-.161a4.822 4.822 0 01-.43-.8l.1.242a4.782 4.782 0 01-.315-1.18l.037.27c-.05-.404-.05-.81 0-1.213l-.037.269c.054-.407.161-.8.316-1.18l-.101.242c.114-.272.255-.534.417-.78.04-.06.084-.12.127-.18.091-.129-.14.17-.063.08l.07-.084a4.536 4.536 0 01.622-.622c.023-.02.047-.037.067-.054.138-.114-.212.155-.064.05.054-.036.108-.076.161-.113.252-.168.521-.313.8-.43l-.242.1c.38-.154.773-.262 1.18-.315l-.27.036c.404-.05.81-.05 1.214 0l-.27-.036c.407.053.8.16 1.18.315l-.242-.1a4.818 4.818 0 01.961.544c.128.09-.171-.141-.08-.064.026.024.057.047.083.07a4.536 4.536 0 01.622.622c.02.024.037.047.057.067.114.138-.154-.211-.05-.063l.114.16c.168.253.313.522.43.8l-.1-.241c.154.38.261.772.315 1.179-.013-.09-.023-.178-.037-.269.024.202.037.403.037.605.004.527.46 1.031 1.008 1.008.544-.024 1.011-.444 1.008-1.008-.007-1.136-.346-2.295-1.011-3.219a5.848 5.848 0 00-2.749-2.1c-2.14-.796-4.737-.097-6.185 1.67a5.813 5.813 0 00-1.328 3.273c-.09 1.129.205 2.311.79 3.282.568.938 1.421 1.74 2.426 2.19a5.848 5.848 0 003.585.424c2.197-.433 4.052-2.332 4.388-4.556a6.68 6.68 0 00.087-.964c.004-.528-.467-1.032-1.008-1.008-.55.023-1.007.443-1.01 1.008z"/><path d="M13.861 25.529a9.767 9.767 0 01-.614-.675l-.152-.192a1.975 1.975 0 00-.006-.01 9.6 9.6 0 01-1.105-1.935l.1.242a9.566 9.566 0 01-.662-2.42c.014.091.024.178.037.27a9.757 9.757 0 010-2.581c-.013.09-.023.178-.037.268a9.604 9.604 0 01.662-2.419l-.1.242a9.33 9.33 0 011.165-2.016c.08-.107-.057.074-.07.088.057-.057.1-.128.15-.192.2-.242.41-.474.63-.695.372-.373.402-1.055 0-1.425-.404-.37-1.029-.4-1.425 0-1.499 1.509-2.557 3.48-2.91 5.584a10.79 10.79 0 00.833 6.33 10.299 10.299 0 002.08 2.96c.373.373 1.058.4 1.424 0 .37-.403.397-1.024 0-1.424zM25.883 13.507c.215.215.42.44.615.675a3968.891 3968.891 0 01.158.202 9.6 9.6 0 011.105 1.935l-.1-.242c.326.773.547 1.586.662 2.42-.014-.091-.024-.179-.037-.27a9.758 9.758 0 010 2.581c.013-.09.023-.178.037-.269a9.605 9.605 0 01-.662 2.42l.1-.242a9.33 9.33 0 01-1.165 2.016c-.081.107.057-.074.07-.088-.057.057-.1.128-.151.192-.198.242-.41.474-.628.695-.373.373-.403 1.055 0 1.425.403.37 1.028.4 1.424 0 1.499-1.509 2.557-3.478 2.913-5.581a10.79 10.79 0 00-.833-6.33 10.299 10.299 0 00-2.08-2.96c-.373-.373-1.058-.4-1.424 0-.373.4-.4 1.021-.004 1.421z"/><path d="M10.071 29.319c-.349-.35-.682-.716-.994-1.095-.07-.088-.141-.179-.212-.266-.107-.134.165.219.01.01l-.087-.117a15.226 15.226 0 01-1.744-3.05l.1.24c-.51-1.219-.856-2.5-1.034-3.81l.037.27a15.06 15.06 0 010-3.965l-.037.268a14.94 14.94 0 011.038-3.806l-.1.241a14.59 14.59 0 011.743-3.05l.088-.118c.154-.205-.118.148-.01.01a14.619 14.619 0 011.206-1.36c.373-.374.403-1.06 0-1.425-.403-.37-1.028-.4-1.425 0-2.285 2.288-3.87 5.275-4.408 8.467A15.886 15.886 0 004.13 21.5a16.396 16.396 0 001.364 4.748 15.787 15.787 0 003.152 4.496c.373.372 1.058.4 1.424 0 .37-.404.4-1.029 0-1.425zM29.673 9.717c.35.35.682.716.995 1.095l.212.266c.107.134-.165-.219-.01-.01.03.037.057.077.087.117a15.226 15.226 0 011.744 3.05l-.101-.24c.51 1.219.857 2.499 1.035 3.81-.014-.091-.024-.179-.037-.27a15.06 15.06 0 010 3.965c.013-.09.023-.178.037-.269a14.94 14.94 0 01-1.038 3.807l.1-.242a14.59 14.59 0 01-1.743 3.051l-.088.118c-.154.205.118-.148.01-.01a14.615 14.615 0 01-1.206 1.36c-.373.373-.403 1.059 0 1.425.403.37 1.028.4 1.425 0 2.284-2.288 3.87-5.275 4.408-8.467.265-1.569.32-3.158.11-4.737a16.396 16.396 0 00-1.363-4.748 15.787 15.787 0 00-3.152-4.496c-.373-.373-1.058-.4-1.425 0-.37.404-.4 1.028 0 1.425z"/></g></g></g></svg>